<?xml version="1.0" standalone="no"?>
<!DOCTYPE svg PUBLIC "-//W3C//DTD SVG 20010904//EN"
 "http://www.w3.org/TR/2001/REC-SVG-20010904/DTD/svg10.dtd">
<svg version="1.0" xmlns="http://www.w3.org/2000/svg"
 width="500.000000pt" height="500.000000pt" viewBox="0 0 500.000000 500.000000"
 preserveAspectRatio="xMidYMid meet">
<metadata>
Created by potrace 1.11, written by Peter Selinger 2001-2013
</metadata>
<g transform="translate(0.000000,500.000000) scale(0.100000,-0.100000)"
fill="#000000" stroke="none">
<path d="M2266 3941 c-4 -5 -7 -28 -8 -51 l-1 -42 -46 6 c-25 4 -158 9 -295
12 l-248 5 3 -50 c4 -51 4 -51 -26 -52 -76 -4 -177 -15 -250 -30 -27 -5 -63
-11 -80 -14 -71 -11 -325 -78 -347 -92 -4 -2 -1 -20 7 -40 18 -42 15 -45 -55
-67 -151 -47 -541 -242 -596 -299 -9 -9 41 -91 203 -332 118 -176 217 -327
220 -335 4 -8 9 -17 13 -20 6 -5 221 -327 230 -345 9 -18 503 -760 517 -777
13 -15 19 -14 74 14 179 88 416 85 600 -7 67 -34 160 -112 205 -171 21 -28 44
-49 51 -47 7 3 15 -6 18 -19 5 -21 12 -23 68 -24 55 -1 120 -8 197 -19 14 -2
50 -7 80 -10 30 -3 62 -8 70 -10 8 -2 44 -7 80 -10 36 -4 67 -8 70 -10 3 -1
37 -6 75 -9 39 -4 77 -9 85 -11 8 -2 51 -9 95 -14 44 -6 116 -15 160 -21 44
-5 100 -13 125 -16 25 -3 56 -7 70 -9 14 -3 48 -7 75 -11 28 -3 61 -7 75 -9
14 -2 63 -9 110 -15 47 -6 96 -13 110 -15 14 -2 48 -7 75 -10 28 -3 61 -7 75
-10 14 -2 49 -7 79 -10 30 -4 61 -8 70 -10 9 -1 41 -6 72 -9 31 -4 65 -8 75
-10 11 -2 49 -7 87 -11 53 -6 67 -5 67 6 0 8 4 52 7 99 14 159 7 505 -12 609
-1 9 -5 37 -9 62 -10 69 -15 96 -37 189 -12 47 -22 90 -23 97 -1 7 -5 16 -9
19 -4 4 -7 15 -7 25 0 26 -85 258 -128 349 -19 41 -36 77 -36 80 -4 19 -119
222 -170 300 -114 174 -209 290 -361 444 -81 83 -267 246 -280 246 -3 0 -13 7
-22 16 -30 29 -198 138 -310 200 -227 126 -535 239 -761 279 -15 2 -51 9 -81
15 -66 12 -88 13 -95 1z"/>
</g>
</svg>
