<?xml version="1.0" encoding="iso-8859-1"?>
<!-- Generator: Adobe Illustrator 16.0.0, SVG Export Plug-In . SVG Version: 6.00 Build 0)  -->
<!DOCTYPE svg PUBLIC "-//W3C//DTD SVG 1.1//EN" "http://www.w3.org/Graphics/SVG/1.1/DTD/svg11.dtd">
<svg xmlns="http://www.w3.org/2000/svg" xmlns:xlink="http://www.w3.org/1999/xlink" version="1.1" id="Capa_1" x="0px" y="0px" width="512px" height="512px" viewBox="0 0 40 40" style="enable-background:new 0 0 40 40;" xml:space="preserve">
<g>
	<path d="M35,3.718h-7.562c-2.354,0-4.326,1.625-4.858,3.813H5c-2.762,0-5,2.239-5,5v18.75c0,2.762,2.238,5,5,5h30   c2.762,0,5-2.238,5-5V8.718C40,5.958,37.762,3.718,35,3.718z M24.045,29.161c0.035,0.198-0.021,0.401-0.148,0.557   c-0.131,0.154-0.322,0.242-0.523,0.242H16.63c-0.2,0-0.394-0.088-0.521-0.24c-0.131-0.153-0.187-0.354-0.154-0.553l1.188-7.188   c-0.791-0.771-1.238-1.813-1.238-2.917c0-2.26,1.839-4.098,4.099-4.098c2.262,0,4.1,1.837,4.1,4.098   c0,1.133-0.467,2.195-1.293,2.971L24.045,29.161z" fill="#D80027"/>
</g>
<g>
</g>
<g>
</g>
<g>
</g>
<g>
</g>
<g>
</g>
<g>
</g>
<g>
</g>
<g>
</g>
<g>
</g>
<g>
</g>
<g>
</g>
<g>
</g>
<g>
</g>
<g>
</g>
<g>
</g>
</svg>
