<?xml version="1.0" encoding="iso-8859-1"?>
<!-- Generator: Adobe Illustrator 19.0.0, SVG Export Plug-In . SVG Version: 6.00 Build 0)  -->
<svg version="1.1" id="Layer_1" xmlns="http://www.w3.org/2000/svg" xmlns:xlink="http://www.w3.org/1999/xlink" x="0px" y="0px"
	 viewBox="0 0 512 512" style="enable-background:new 0 0 512 512;" xml:space="preserve">
<circle style="fill:#FF7069;" cx="256" cy="255.969" r="255.969"/>
<g>
	<polygon style="fill:#FFE356;" points="56.081,254.13 271.392,181.398 217.488,105.049 2.177,177.78 	"/>
	<polygon style="fill:#FFE356;" points="455.98,217.519 271.392,181.398 325.297,105.049 509.884,141.169 	"/>
</g>
<g>
	<polygon style="fill:#FFEB87;" points="53.751,250.818 268.326,177.106 271.392,181.398 56.081,254.13 	"/>
	<polygon style="fill:#FFEB87;" points="274.336,177.29 458.862,213.349 455.612,218.009 271.76,180.908 271.76,180.908 	"/>
</g>
<g>
	<polygon style="fill:#FCD34E;" points="271.392,181.398 455.98,217.519 455.98,439.269 271.392,403.149 	"/>
	<polygon style="fill:#FCD34E;" points="271.392,181.398 56.081,254.13 56.081,463.37 271.392,403.149 	"/>
</g>
<path style="fill:#6B7F9E;" d="M243.367,40.597c95.789,0,173.426,77.637,173.426,173.426s-77.637,173.426-173.426,173.426
	S69.941,309.812,69.941,214.023S147.578,40.597,243.367,40.597z"/>
<path style="fill:#FFFFFF;" d="M351.728,78.618c32.257,25.818,55.07,62.98,62.49,105.356c-0.552-0.797-1.043-1.84-1.594-3.434
	c-3.373,1.104-3.496,1.226-7.482,1.84l-0.184,0.245c-1.594,2.269,0.061,1.288-2.698,3.679c-3.312,2.821-5.519,6.623-9.199,8.892
	c-0.429,3.986,0.307,4.845-0.675,9.567c-0.368,1.717-2.33,6.378-4.599,6.071c-0.736-0.123-3.802-7.666-4.477-9.812
	c-1.227-3.557-2.637-6.194-3.496-10.241c-0.491-2.208-0.859-6.378-1.349-7.85c-2.392,0.368-2.269,1.901-4.538,0.245
	c-1.594-1.165-0.859-1.84-1.778-3.618c-1.901-1.778-3.802-3.557-5.765-5.335c-1.533-0.491-7.298,0.368-9.751,0.061
	c-4.415-0.429-4.783-0.123-7.359-3.618c-4.599,0.245-4.231,1.962-8.708-1.901c-2.944-2.514-2.392-6.5-6.684-4.231
	c-0.184,3.618,1.594,4.477,3.189,6.132c1.165,1.288,2.637,2.208,3.189,3.925c0.061,0.061,0.307,1.717,0.368,1.901
	c4.17,0.245,5.151-1.717,7.42-3.434c2.208,2.085,0.061,2.453,3.25,4.109c2.576,1.288,2.024,0.552,3.741,2.637
	c0.859,2.821-5.703,10.425-7.911,11.774c-1.656,1.043-2.576,0.429-4.047,1.656c-2.208,1.901,0.307,1.594-3.618,3.005
	c-4.17,1.533-8.279,4.722-12.633,4.967c-0.92-2.576-1.901-5.213-2.821-7.85c-2.76-8.953-2.637-5.458-5.519-10.119
	c-1.349-2.024-0.797-3.312-1.656-5.09c-0.613-1.349-1.533-1.901-2.392-3.557c-1.288-2.514-2.76-6.5-5.703-6.071
	c-0.613,2.024,2.698,8.769,3.557,10.425c0.859,1.656,2.146,2.33,2.576,4.722c0.552,3.25-0.123,2.821,1.656,5.029
	c3.741,4.477-0.184,3.679,5.642,8.095c4.354,3.312,3.189,4.293,5.029,8.647c2.821,0.797,11.284-3.005,12.694-1.84
	c1.717,3.066-2.024,7.972-2.944,10.609c-3.128,8.953-8.524,8.831-12.694,15.638c-2.269,3.679-3.312,4.17-5.458,8.647
	c-2.392,5.029,4.845,18.949,0.491,24.775c-0.92,1.349-3.986,2.146-7.85,6.194c-4.047,4.415,0.123,3.618-1.472,10.977
	c-1.226,1.717-2.698,1.778-4.231,3.005c-0.552,1.717-0.123,3.128-1.043,5.274c-0.981,2.576-1.165,1.226-2.637,3.312
	c-1.043,1.656-0.92,2.33-2.146,3.802c-1.043,1.41-1.594,1.778-2.576,2.698c-4.845,4.477-15.209,4.599-16.128,3.925
	c-2.453-2.085-0.797-2.637-1.41-5.581c-0.613-2.576-1.962-4.722-3.128-6.746l-0.123-0.184c-0.552-0.981-1.043-1.901-1.349-2.821
	c-2.024-6.316-1.288-11.1-4.783-17.539c-4.415-8.279,2.453-12.572,2.146-17.232c-0.123-1.227-0.552-2.024-0.675-3.005
	c-0.859-5.151-1.349-9.751-4.783-13.798c-3.802-4.415-3.25-2.821-2.024-10.119c1.533-8.34-2.024-6.194-6.991-6.378
	c-2.453-7.543-7.236-3.863-12.02-1.656c-3.005,1.349-4.109-0.429-7.482,0.061c-7.543,1.043-1.594,4.293-11.713-3.741
	c-4.231-3.312-1.41-1.656-3.863-5.826c-0.859-1.533-3.373-3.496-4.538-5.029c-3.802-4.783,0.736-9.628,0.061-15.147
	c-1.165-10.241-2.821-1.349,2.882-13.675c3.005-6.562,7.543-6.623,8.708-9.567c0.981-2.637,0.307-4.477,2.208-6.868
	c1.656-1.962,4.047-1.533,5.029-4.599c1.349-3.802-1.227-4.293-3.986-4.354c-1.165-3.986-1.165-3.005-0.307-6.623
	c0.491-2.024,0.061-3.005,0.491-5.09c1.104-5.09,9.812-0.061,12.326-2.146c1.165-2.146,1.349-4.293,0-6.378
	c-1.41-2.085-3.189-1.84-4.17-3.802c2.085-1.41,0.552-0.184,2.392-0.552c2.146-0.491,1.901-1.104,4.415-1.594
	c2.269-0.429,3.741-2.514,5.948-3.925c3.189-2.024,1.656-3.863,5.519-4.477c6.194-1.043,2.146-0.92,2.821-6.623
	c0.92-0.368,1.84-0.736,2.698-1.165c1.962,2.514-0.491,1.533,1.84,3.189c0.613-0.368,1.349-0.736,2.024-1.043
	c-0.307-2.76-1.594-2.208-2.453-5.642c-3.066,0.491-4.17,3.066-6.623,2.146c-2.392-0.92-2.514-4.293-2.392-7.175
	c0.859-2.146,5.335-3.312,7.052-3.802c2.76-0.92,2.392-2.821,4.967-5.335c3.312-3.312,0.859,0.061,2.514-4.293
	c3.679-0.123,1.962-0.245,4.109-1.41l0.123-0.061l0.245-0.061c1.288-0.552,2.944-0.736,4.599-1.288
	c6.132-2.024,8.585-1.043,13.062,0.797c3.434,1.41,13.859,1.472,14.595,5.826c-2.514,2.637-4.906,0.736-8.524,0.92
	c0.675,3.373,0.92,3.373,3.986,4.293c0.491-1.594-0.245-0.981,0.613-2.024c0.981,0.245,2.024,0.429,3.005,0.552
	c0.981-3.434,2.146-2.944,5.581-3.312c-0.552-2.33-1.165-1.717,0.123-3.557c3.496,0.368,0.675,0.061,2.392,2.821
	c2.453-0.307,4.845-3.005,8.217-3.373c2.085-0.245,2.024,0.552,4.967,0.245c2.453-0.245,2.33-1.165,4.783-0.123
	c0.859-1.656,0-1.594,2.146-2.024c3.312-0.552,6.194,1.472,9.444,1.901c-2.392-2.944-4.661-2.33-1.717-7.236
	c3.741-0.736,4.047-0.245,5.642,2.576c0.92-0.491,1.288-1.043,1.778-1.288L351.728,78.618z M73.988,176.615
	c7.788-35.568,26.554-67.028,52.433-90.699c2.024,0.675,4.661,0.245,6.684,0.184c0.736-1.349,1.165-2.514,2.453-3.005
	c0.491-0.184,1.104-0.245,1.962-0.184c0.123,0.675,0.307,1.349,0.429,2.024c0,0.061,0.123,0.491,0.061,0.429
	c0.061-0.123,0.123,0.245,0.184,0.368c3.495-2.024,0.552-2.085,2.453-5.765c-2.944-0.552-2.576-0.245-4.415-2.085
	c1.778-1.962,5.213-2.637,7.788-2.453c-0.184,1.778-0.981,1.717-0.307,3.25c2.024-1.226,3.373-4.599,6.623-3.925
	c0.613,0.429,1.349,0.859,2.024,1.226c-1.656,1.533-4.17,1.656-6.316,2.514c-0.92,9.628,3.066,1.533,1.717,8.156
	c2.392-0.184,4.722-1.901,5.581-3.679c-0.859-1.165-2.146-1.165-2.882-2.514c0.552-1.778,1.778-3.128,3.434-3.925
	c1.165-0.552,2.514-0.859,4.047-0.859c17.662,0.123,9.26,0.92,14.718,3.434c1.227,0.552,3.373,0.797,4.109,1.84
	c1.104,1.717,0.061,3.312,1.84,4.599c1.533,1.165,1.778-0.061,3.802,2.514c-0.429,1.472-1.472,3.005-3.679,3.005
	c-3.005,0.061-1.227-2.024-4.415-1.717c0.061,3.005,3.066,4.17,0.307,5.826c-2.453,1.472-0.92-0.552-2.698,0.491
	c-0.061,0.061-0.245,0.123-0.307,0.184c-0.123,0.061-0.245,0.245-0.307,0.307c-0.307,0.368-0.613,0.675-0.859,0.981
	c-4.415-1.226-3.618-0.675-6.255-3.618c-0.981-1.104-1.165-1.41-2.944-1.226c-1.104,0.061-2.576,0.552-3.618-0.429
	c2.146-2.698,3.25-0.061,6.378-1.717c0.552-0.245,4.047-3.005,4.599-3.618c-0.92-2.146-0.123-0.368-1.472-1.717
	c-3.128-3.128-3.986-2.392-8.218-2.392c-1.962,2.269-3.434,5.09-5.581,6.316c-1.288,0.736-2.821,0.92-4.906,0.061
	c0.92,3.802,3.373,0.92,3.618,5.519c-1.594-0.307-2.453-1.104-4.109-0.552c-3.557,1.349-0.368,1.226-0.123,1.901
	c0,0.061,1.656,0.245,0,0.859c-1.84,0.675-0.307-0.368-3.802-2.453c0.491-0.92,0.981-1.84,1.472-2.76
	c-2.882,0.92-6.5,2.33-9.873,3.925c-3.863,1.901-7.42,4.109-9.628,6.071c-0.061,3.312,0.552,1.104,0.92,5.09
	c5.151,0.307,3.496,1.84,8.647,3.312c0.981,0.245,2.269,0.552,3.863,0.797c0,2.514-2.208,4.354-0.675,6.93
	c3.618,2.514,3.741-2.392,4.599-5.581c12.204-2.576,6.316-6.132,9.505-12.878c0.491-0.981,1.165-2.085,2.146-3.25
	c0.92,0.061,4.783,0.429,5.581,0.613c2.76,0.491,1.288,1.165,4.293,2.514c-0.061,2.392-1.288,5.519,2.269,4.967
	c2.698-0.491,2.085-2.637,5.458-3.189c1.472,3.496,1.104,5.029,1.778,9.26c7.972,3.128,4.415,5.642,2.882,11.468
	c0.981,0.491,2.024,0.92,3.128,1.349c-0.061,1.717-0.123,3.312-0.184,4.967c-0.184,0-8.524-1.84-9.137-2.024
	c1.288-3.679,3.618-3.679,5.09-7.42c-3.005,0.552-2.76,1.472-4.967,2.146c-1.962,0.552-3.434,0.184-5.519,0.429
	c-0.736,2.392-0.061-2.085,0.184,0.981c0.123,1.165,0.675,0.061-0.123,1.288c-2.76-1.288-1.84-4.293-6.991-1.533
	c1.165,0.552,2.33,1.043,3.557,1.533c-0.184,3.434-0.429,0.859-1.165,3.128c-1.778,5.826,4.845,2.208,6.562,1.901
	c-0.429,3.066-2.33,3.066-5.029,3.925c-2.944,0.92-3.802,2.085-6.132,2.637c0-3.679-0.552-0.552,1.043-3.128
	c-2.33,0.245-4.047,1.288-6.255,2.208l-0.245,0.061c-2.882,1.165-3.312,1.349-3.618,4.967c-2.453,0.736-5.274,1.594-6.991,3.373
	c-1.717,1.656-3.434,3.312-5.09,4.906c-0.184,0.123-0.307,0.245-0.368,0.368c0.613,4.599,0,4.661-2.76,6.439
	c-2.33,1.533-3.128,1.472-5.274,3.373c-6.93,6.255-3.618,3.312-3.25,14.043c-1.472-0.429-2.821-0.92-4.17-1.41
	c-1.043-7.114,0.368-4.783-5.335-6.378c-6.132-1.778-5.335,1.227-7.911,1.778c-2.821,0.613-4.231-2.576-8.34,0.061
	c-2.269,1.533-4.415,2.576-4.967,5.335c-0.675,3.312-2.146,5.765-1.962,9.444c0.368,9.996,9.505,10.609,11.836,5.887
	c1.533-3.128,1.165-4.783,6.194-3.986c0.491,2.698-0.307,4.599-0.92,6.684c-0.429,1.227-1.656,3.373-1.043,5.029
	c3.618,1.472,3.741-1.288,8.524,1.533c0.307,4.783-2.146,10.119,1.472,12.878c2.821,2.085,3.005,0.245,5.519-0.245
	c2.76-0.491,2.269,1.226,4.845,1.656c1.472-1.778,0.859-0.675,1.778-2.821c1.656-3.802,2.085-2.024,6.071-4.293
	c0.368-0.245,0.736-0.429,1.104-0.736c0.429,0.92,0.92,1.84,1.41,2.698c2.882-3.434,3.25-0.061,6.562,0.859
	c1.41,0.368,2.453,0.552,3.25,0.552c2.453,0.061,2.698-1.165,5.949,0.061c0.368,0.184,0.92,0.307,1.349,0.429
	c0.061,0,0.245,0.061,0.245,0.184c0.061,0.061,0.245,0.184,0.307,0.245c0.552,0.613,0.613,1.227,1.043,1.901
	c2.269,2.208,4.538,4.354,6.746,6.5c4.354,1.717,4.354-1.533,9.383,3.312c2.085,2.024,1.165,1.962,2.33,4.538
	c0.184,0.429,0.491,0.797,0.736,1.288c0.429,1.226,0.92,2.33,1.472,3.495c2.269,3.005,5.397,1.104,8.524,4.17
	c1.84,1.778,0.429,1.226,4.477,1.962c6.255,1.043,3.863,0.429,8.585,4.047c1.84,1.349,2.269,0.552,3.986,1.717
	c2.392,3.312,1.778,6.93-0.245,9.873c-6.194,8.953-4.047,7.543-4.354,14.657c-0.245,4.109-1.41,12.51-5.213,13.553
	c-13.921,3.925-5.826,6.623-9.505,13.491c-1.043,1.962-1.84,2.453-2.514,3.986c-2.76,6.5-0.859,8.647-9.076,7.175
	c0.797,1.349,0.307,0.429,1.043,1.656c2.453,3.802,2.821,6.623-2.146,7.543c-4.17,0.797-2.392,0-2.76,4.599
	c-1.594,0.675-2.33,0-3.373,1.043c1.472,2.698,0.123,0.429,2.576,1.962c-0.429,1.472-0.797,2.882-1.165,4.293
	c-0.92,3.496-1.227,0.245-1.533,4.293c1.472,0.675,2.453,0.552,3.741,2.269c-0.184,1.349-1.472,4.967-1.901,7.052
	c2.024,3.066,3.741,6.378,8.095,6.684c-0.061,2.576,0.552,2.33-1.656,2.821c-1.901,0.429-5.887-1.349-7.543-2.208
	c-2.882-1.533-5.581-3.618-7.482-6.562c-1.104-1.656-0.675-0.859-1.84-2.392c-2.085-2.698-1.288-3.986-1.901-5.765
	c-0.307-1.043-2.024-2.208-1.349-5.703c0.184-0.981,1.717-5.642-0.184-4.845c-1.901,0.736,1.41,0.429-1.165,1.717
	c-0.613-1.717-1.104-4.17-1.472-6.255c-0.675-3.496-1.472-3.618-1.901-5.765c-0.859-4.967,1.288-5.458-1.043-13.675
	c-1.533-5.458-0.92-18.336-2.514-24.959c-0.245-1.043-0.552-1.962-0.981-2.637c-1.472-2.514-5.151-3.618-8.095-5.642
	c-0.184-0.061-0.307-0.061-0.307-0.184c-4.047-2.821-7.911-13.982-11.1-18.152c-1.472-2.024-2.453-1.104-3.128-4.293
	c-0.736-2.882,0.368-2.392,1.349-4.783c-4.967-9.076,6.378-8.953,4.047-19.808c-0.491-2.024-1.962-4.783-3.189-5.703
	c-2.33,1.043-1.226,1.594-2.453,3.557c-1.901-1.043-3.802-2.146-5.581-3.189c-5.703-5.519-2.637-1.533-4.293-5.09
	c-3.434-7.543-6.746-3.312-10.854-7.052c-1.84-1.533-2.146-3.986-5.213-3.557c-4.599,0.613-2.024,1.349-6.807-0.92
	c-4.047-1.901-8.279-4.109-11.1-6.684c-0.123-3.986,1.349-4.17-1.165-7.911c-0.429-0.675-0.92-1.349-1.472-1.962L73.988,176.615z
	 M128.383,84.199c1.043-0.92,2.085-1.84,3.189-2.76l0.061,0.184c0.245,0.368,0.368,0.368,0.613,1.288
	C129.426,83.586,129.426,84.076,128.383,84.199z M276.789,135.773c1.533,0.981,3.434,1.717,4.538,2.698
	c1.472,3.925-0.368,2.024,2.453,6.194c1.594,2.208,1.288,3.802,2.944,5.09c3.066-0.429,0.368,0.491,2.269-1.349
	c0.307-0.368,1.288-1.472,1.533-1.901c-0.981-1.533-1.594-1.656-2.514-3.189c3.434-4.599,4.967-1.962,5.764,1.043
	c2.146,8.401,5.519,5.948,8.279,5.581c2.821-0.429,0.368,0.061,2.944,0.736c2.453,0.613,1.288,0,3.005-0.429
	c5.826-1.41,1.349,9.873,0.736,11.1c-3.189,0.429-2.576-0.307-4.845-0.552c-4.599-0.491,0.307,2.76-10.609-0.797
	c-10.425-3.312-8.218-4.109-10.364,3.189c-2.392-0.184-2.269-0.613-4.477-1.349c-0.859-0.307-1.349-0.491-1.656-0.613l-0.123-0.061
	c-0.859-0.307,0-0.061-1.84-1.778c-1.594-1.533-5.581-1.84-8.34-3.312c0-2.392,2.085-4.415-0.429-7.236
	c-0.859-0.245-12.633,0.245-14.534,0.675c-3.802,0.797-4.477,4.047-9.751,3.312c-2.882-0.429-1.901-0.123-2.637-1.84
	c0.92-0.92,0-0.429,1.594-1.043c0.613-0.245,0.859-0.123,1.472-0.245c8.524-1.288,4.17-5.581,9.505-9.751
	c4.415-3.557,0.92,0.061,3.373-4.293c3.005-0.245,2.637,1.227,5.151-0.061c2.085-1.043,1.472-2.024,4.415-2.085
	c2.637,2.698,2.085,4.293,6.439,6.316c1.717,0.797,2.76,1.227,3.863,2.698c2.024,2.821,0.307,1.901,1.043,3.863
	c0.184-0.061,0.368-0.184,0.613-0.245l0.123-0.061c2.33-1.104-1.165-1.472,2.637-4.783c-1.104-0.797-1.901-1.349-2.637-1.778
	l-0.123-0.061c-2.944-1.717-1.778-0.123-5.581-4.845c-0.981-1.349-1.288-1.41-1.226-3.495c2.698-0.491,3.189,1.472,5.642,3.618
	c0.307,0.307,0.736,0.552,1.104,0.859l0.123,0.061L276.789,135.773z M336.09,255.479c-2.453,1.227-2.76,4.109-4.599,5.703
	c-2.024,1.84-4.661,0.981-5.458,4.354c-0.981,4.231,1.656,2.944-1.288,8.463c-1.043,2.024-1.104,7.175,0.491,8.647
	c4.845,4.661,7.42-7.114,8.524-10.793c0.859-2.637,1.594-5.581,2.514-8.034c0.92-2.637,2.146-4.906-0.245-8.34H336.09z
	 M328.118,131.419c0.368,5.458,3.618,7.543,5.887,9.996c-0.307,2.576-0.92,1.901-0.859,5.519c2.698,1.962,4.722,3.128,8.279,2.208
	c0.491-4.354-0.92-4.109-2.208-7.114c0.245-0.368,0.859-0.797,0.92-0.859c0.981-1.349,0.491,0.552,0.981-1.717
	c-2.637-0.859-6.807-3.496-7.175-7.052c1.288-1.043,0.859-0.429,1.84-1.043c2.024-1.349,0.491,0.736,1.717-1.533
	c-1.043-2.024-2.208-2.392-4.783-1.41c-1.104,0.429-4.047,2.514-4.661,3.005H328.118z M305.428,132.829
	c-1.717-2.392-1.594-3.618-4.967-3.679c-1.349,1.41-2.882,3.557-3.618,5.765c-1.104,3.312-0.307,1.043-0.245,4.599
	c-0.061,0.123,0,0.307,0,0.429c-0.061,2.146-0.552-0.429-0.245,1.533c2.637-0.552,0.613-0.491,2.576-1.104
	c1.84-0.613,7.42-2.33,9.076-1.901c3.802,0.92,7.052,3.925,11.406,0.92c-0.245-3.863-4.906-5.335-8.095-7.052
	c0.184-3.557,1.104-0.736,0.859-4.17c-1.104-0.061-1.778-0.245-2.821,0.245c-2.514,1.104-1.104,1.41-1.104,1.84
	c0.123,1.901,2.514-0.368-0.061,1.962c-0.736,0.613-1.901,0.613-2.76,0.736V132.829z M240.546,105.908
	c-0.123,6.255,2.085,4.109,4.109,7.175c-0.92,2.637-1.104,0.552-2.146,3.312c-0.92,2.269,0.245,0.245-0.368,4.17
	c1.594,0.061,3.986-0.491,6.132-0.675c3.005-0.245,2.944-0.552,3.986-3.618c-1.656-2.024-3.312-4.109-5.029-6.132
	c-2.146-3.312,0-1.043-0.675-3.802c-0.491-0.981-0.92-1.962-1.41-2.944c-2.882,0.981-2.576,0.736-4.538,2.453L240.546,105.908z"/>
<polygon style="fill:#FFE356;" points="56.081,254.13 240.669,290.25 240.669,512 56.081,463.37 "/>
<polygon style="fill:#FFEB87;" points="234.782,289.085 240.73,290.189 247.169,287.981 247.169,507.707 240.853,511.816 
	240.853,512 240.73,511.939 240.669,512 240.669,511.877 234.782,509.67 "/>
<polygon style="fill:#FCD34E;" points="56.081,358.995 56.081,274.857 229.078,306.562 194.369,385.119 "/>
<polygon style="fill:#FFE356;" points="56.081,254.13 240.669,290.25 186.764,366.538 2.177,330.479 "/>
<polygon style="fill:#FFEB87;" points="56.081,254.13 240.669,290.25 237.357,294.849 53.506,257.809 53.506,257.809 "/>
<polygon style="fill:#FFE356;" points="455.98,217.519 240.669,290.25 240.669,512 455.98,439.269 "/>
<polygon style="fill:#FCD34E;" points="455.98,329.068 455.98,234.506 250.358,303.987 294.573,383.586 "/>
<polygon style="fill:#FFE356;" points="455.98,217.519 240.669,290.25 294.573,366.538 509.884,293.807 "/>
<polygon style="fill:#FFEB87;" points="240.669,290.25 455.98,217.519 459.046,221.811 242.999,293.561 "/>
<path style="fill:#6C7678;" d="M112.01,419.89l-3.496,1.41l-2.208-5.581c-0.613-1.349-1.349-2.085-2.085-2.33
	c-1.349-0.429-2.882,0.429-3.986,1.349c-0.429,0.368-0.797,0.797-1.165,1.104c0.123,0.429,0.307,0.92,0.491,1.41
	c0.613,1.778,1.533,4.109,2.514,6.623l-3.434,1.349l4.17,0.613h0.184l0.552,0.061l3.741,0.552l1.962-2.76l0.184-0.307l2.576-3.618
	V419.89z M82.758,434.976c-1.226-0.552-2.514-1.227-3.312-2.269l3.557,8.831c0.368,0.307,0.613,0.429,0.736,0.491l0.123,0.061
	l9.873,2.698l0.981-6.378c-0.675-0.184-1.533-0.429-2.453-0.675l-6.255-1.656c-0.184-0.061-0.675-0.123-1.288-0.307l0,0
	l-0.184-0.061c-0.491-0.123-1.104-0.368-1.717-0.613L82.758,434.976z M79.937,421.853l3.373,2.637l-3.312,4.047
	c-0.736,1.043-0.92,1.962-0.675,2.76c0.491,1.41,2.146,2.453,3.679,3.128c0.613,0.245,1.165,0.429,1.656,0.613
	c0.245-0.307,0.552-0.613,0.92-0.92c1.104-1.227,2.576-2.882,4.047-4.722l3.312,2.576l-2.146-4.047l-0.061-0.184l-0.245-0.491
	l-1.901-3.557l-3.557-0.736l-0.368-0.061l-4.722-0.981V421.853z M109.863,443.071c0.307,1.288,0.552,2.76,0.184,3.863l5.274-6.439
	c0.061-0.429,0-0.736-0.061-0.859l-0.061-0.123l-3.925-9.873l-6.01,1.472c0.307,0.675,0.613,1.533,0.981,2.514l2.514,6.255
	c0.061,0.184,0.307,0.675,0.552,1.288l0,0l0.061,0.184c0.184,0.491,0.368,1.104,0.552,1.778L109.863,443.071z M100.481,450.43
	l0.123-3.986l5.519,1.533c1.349,0.307,2.269,0.123,2.76-0.429c0.859-0.92,0.736-2.882,0.307-4.477
	c-0.184-0.613-0.368-1.227-0.552-1.717c-0.429-0.123-0.859-0.307-1.349-0.429c-1.778-0.552-4.047-1.227-6.562-1.962l0.123-3.925
	l-2.085,3.373l-0.061,0.123l-0.245,0.429l-1.84,3.005l1.594,3.496l0.184,0.368l2.146,4.599H100.481z M99.806,414.126
	c0.92-0.797,1.962-1.472,3.189-1.533l-8.831-2.392c-0.429,0.123-0.613,0.245-0.675,0.368l-0.061,0.123l-5.887,7.236l5.09,4.906
	c0.429-0.491,0.92-1.165,1.472-1.778l3.741-4.538c0.123-0.184,0.368-0.491,0.797-0.981l0,0l0.123-0.123
	c0.307-0.368,0.675-0.736,1.165-1.165L99.806,414.126z"/>
<polygon style="fill:#FFFFFF;" points="254.222,426.575 376.932,384.506 375.89,447.916 253.179,489.923 "/>
<path style="fill:#6C7678;" d="M262.071,428.292l2.208-0.736l-0.859,52.494l-2.208,0.736L262.071,428.292z M332.595,416.824
	l-1.165,0.429l-0.675,39.738l1.165-0.429L332.595,416.824z M338.604,414.739l-4.783,1.656l-0.675,39.738l4.783-1.656
	L338.604,414.739z M342.406,413.451l-2.33,0.797l-0.613,39.738l2.33-0.797l0.675-39.738H342.406z M347.374,411.734l-1.533,0.491
	l-0.613,39.738l1.533-0.552l0.613-39.738V411.734z M363.012,406.399l1.165-0.368l-0.675,39.738l-1.165,0.429l0.675-39.738V406.399z
	 M357.002,408.484l4.783-1.656l-0.613,39.738l-4.783,1.656l0.675-39.738H357.002z M353.2,409.772l2.33-0.797l-0.675,39.738
	l-2.33,0.797l0.613-39.738H353.2z M348.232,411.489l1.533-0.491l-0.675,39.738l-1.533,0.491L348.232,411.489z M311.192,411.489
	l0.797-0.307l-0.859,52.494l-0.797,0.245l0.859-52.494V411.489z M317.877,409.22l6.378-2.208l-0.859,52.494l-6.378,2.208
	L317.877,409.22z M315.056,410.201l1.594-0.552l-0.859,52.494l-1.594,0.552L315.056,410.201z M302.791,414.432l6.378-2.208
	l-0.859,52.494l-6.378,2.208L302.791,414.432z M300.46,415.23l1.349-0.491l-0.859,52.494l-1.349,0.491L300.46,415.23z
	 M297.149,416.333l1.594-0.552l-0.859,52.494l-1.594,0.552L297.149,416.333z M292.611,417.867l3.189-1.104l-0.859,52.494
	l-3.189,1.104L292.611,417.867z M284.761,420.565l6.378-2.208l-0.859,52.494l-6.378,2.208L284.761,420.565z M280.959,421.853
	l1.349-0.491l-0.859,52.494l-1.349,0.491L280.959,421.853z M273.907,424.244l5.274-1.84l-0.859,52.494l-5.274,1.778l0.859-52.494
	V424.244z M266.487,426.759l2.146-0.736l-0.859,52.494l-2.208,0.736l0.859-52.494H266.487z"/>
<g>
</g>
<g>
</g>
<g>
</g>
<g>
</g>
<g>
</g>
<g>
</g>
<g>
</g>
<g>
</g>
<g>
</g>
<g>
</g>
<g>
</g>
<g>
</g>
<g>
</g>
<g>
</g>
<g>
</g>
</svg>
