<?xml version="1.0" encoding="iso-8859-1"?>
<!-- Generator: Adobe Illustrator 19.0.0, SVG Export Plug-In . SVG Version: 6.00 Build 0)  -->
<svg version="1.1" id="Layer_1" xmlns="http://www.w3.org/2000/svg" xmlns:xlink="http://www.w3.org/1999/xlink" x="0px" y="0px"
	 viewBox="0 0 512 512" style="enable-background:new 0 0 512 512;" xml:space="preserve">
<circle style="fill:#FFE356;" cx="256" cy="256" r="256"/>
<path style="fill:#83CF8F;" d="M504.268,363.24c5.103,8.969,2.01,20.335-6.881,25.438l-129.276,74.457
	c-8.892,5.103-20.335,2.088-25.438-6.881L213.707,232.418c-4.252-7.345,14.227-98.194,20.799-129.43
	c0.619-2.783,2.165-5.026,4.639-6.495c2.474-1.469,5.18-1.856,7.886-1.005c31.391,9.124,124.018,36.494,128.271,43.917
	L504.268,363.24z M281.747,135.925c6.108,10.593,2.474,24.123-8.118,30.154c-10.593,6.108-24.123,2.474-30.154-8.118
	c-6.108-10.593-2.474-24.123,8.118-30.154C262.185,121.699,275.639,125.333,281.747,135.925z"/>
<g>
	<path style="fill:#75BD80;" d="M506.51,369.735c1.082,7.345-2.32,15-9.124,18.943l-129.276,74.457
		c-7.654,4.407-17.242,2.783-23.041-3.479L506.51,369.735z"/>
	<path style="fill:#75BD80;" d="M276.489,104.147c12.216,43.143,30.618,111.338,27.061,117.987l-45.695,87.06l-44.226-76.699
		c-2.861-5.026,4.716-48.556,11.907-85.746c0.387,0.232,0.773,0.464,1.16,0.696c4.407,2.32,9.278,3.093,13.917,2.551
		c0.387,2.783,1.314,5.49,2.783,8.041c6.108,10.593,19.639,14.227,30.154,8.118c10.593-6.108,14.227-19.639,8.118-30.154
		c-4.253-7.345-12.139-11.366-20.103-11.056c-0.464-8.041-5.026-15.696-12.68-19.716c-4.639-2.397-9.665-3.17-14.458-2.474
		c1.314-6.34,2.165-10.206,2.165-10.206s17.397,4.948,39.819,11.675L276.489,104.147z"/>
</g>
<path style="fill:#FF7069;" d="M172.574,453.006c-4.794,9.124-16.082,12.603-25.206,7.809L15.232,391.461
	c-9.124-4.794-12.603-16.082-7.809-25.206l120.075-228.707c3.943-7.5,90.539-40.515,120.539-51.726
	c2.706-1.005,5.412-0.851,7.964,0.464c2.551,1.314,4.33,3.402,5.103,6.108c9.124,31.391,35.566,124.327,31.546,131.905
	L172.574,453.006z M251.284,145.59c-5.644,10.825-19.02,15-29.845,9.278c-10.825-5.722-15-19.02-9.278-29.845
	c5.722-10.825,19.098-14.922,29.845-9.278C252.83,121.467,256.928,134.765,251.284,145.59z"/>
<path style="fill:#F7635B;" d="M169.326,457.413c-5.644,5.722-14.536,7.345-21.958,3.402L15.232,391.461
	c-6.804-3.557-10.438-10.747-9.897-18.015L169.326,457.413z"/>
<g>
	<path style="fill:#FFFFFF;" d="M87.06,345.534c2.551-2.088,5.49-3.711,8.969-4.871l3.479,10.515
		c-3.943,0.928-6.959,3.479-9.046,7.655c-2.088,4.175-2.474,7.345-1.082,9.51c1.392,2.165,3.093,3.015,5.026,2.552
		c2.01-0.464,4.407-2.629,7.191-6.417c2.629-4.175,6.185-7.5,10.361-9.819c4.252-2.397,9.046-2.242,14.381,0.464
		c4.175,2.088,6.804,5.876,7.886,11.211c1.082,5.335,0.309,10.593-2.242,15.696c-2.474,4.871-5.18,8.582-8.196,11.134
		s-6.263,4.407-9.742,5.567l-3.479-10.515c3.943-0.928,7.577-4.021,10.825-9.433c2.32-4.639,2.783-8.041,1.392-10.129
		c-1.392-2.165-3.325-3.17-5.953-2.938c-2.551,0.155-5.258,2.474-8.041,6.881c-2.551,3.943-5.722,7.113-9.587,9.587
		c-3.866,2.397-8.35,2.397-13.453-0.232c-4.639-2.32-7.345-6.108-8.196-11.52c-0.773-5.335-0.155-10.129,1.933-14.304
		c2.474-4.871,4.948-8.273,7.423-10.438L87.06,345.534z M198.707,249.196l-52.267-26.211l19.252-38.427l9.742,4.948l-13.995,27.912
		l11.134,5.644l10.515-20.953l9.742,4.871l-10.515,20.953l11.907,5.953l13.995-27.912l9.742,4.871L198.707,249.196z
		 M128.193,259.325l42.525,21.34l13.995-27.912l9.742,4.871l-19.175,38.35l-52.267-26.211l5.258-10.515L128.193,259.325z
		 M119.92,310.509l15.85,17.938l7.886-15.696L119.92,310.509z M144.971,356.127l-41.752-47.164l5.258-10.438l62.705,5.335
		l-5.567,11.134l-9.587-0.928l-11.907,23.737l6.417,7.113l-5.644,11.134L144.971,356.127z"/>
	<path style="fill:#FFFFFF;" d="M402.904,326.205c2.861-1.701,4.639-4.098,5.258-7.191c0.619-3.015,0.077-6.031-1.701-8.892
		c-1.701-2.861-4.098-4.716-7.036-5.567c-3.015-0.851-5.953-0.387-8.814,1.392c-2.861,1.701-4.562,4.098-5.18,7.113
		c-0.619,3.015-0.155,5.953,1.624,8.814c1.778,2.861,4.098,4.716,7.113,5.567c3.015,0.851,5.876,0.387,8.737-1.314V326.205z
		 M391.538,338.266c-5.953-1.469-10.67-4.948-13.995-10.515c-3.325-5.567-4.33-11.288-2.783-17.319
		c1.469-5.953,4.948-10.67,10.515-13.995s11.366-4.33,17.319-2.861c5.953,1.469,10.67,5.026,13.995,10.515
		c3.402,5.567,4.33,11.366,2.861,17.319c-1.469,5.953-5.026,10.67-10.515,13.995c-5.567,3.325-11.288,4.33-17.319,2.783
		L391.538,338.266z M355.663,367.029l-2.938-105.384l12.757-7.732l3.093,105.307L355.663,367.029z M330.225,315.458
		c2.938-1.778,4.716-4.175,5.335-7.345c0.696-3.093,0.077-6.185-1.701-9.124c-1.778-2.938-4.175-4.871-7.268-5.722
		c-3.015-0.85-6.031-0.387-9.046,1.392c-2.861,1.778-4.639,4.175-5.335,7.268c-0.619,3.093-0.077,6.108,1.701,9.046
		s4.175,4.871,7.268,5.722c3.015,0.85,6.031,0.464,8.969-1.314L330.225,315.458z M318.55,327.519
		c-6.031-1.469-10.747-5.026-14.149-10.593c-3.325-5.567-4.33-11.443-2.783-17.474c1.469-6.031,5.026-10.747,10.593-14.149
		c5.567-3.402,11.366-4.33,17.474-2.861c6.031,1.469,10.747,5.026,14.149,10.593c3.402,5.567,4.33,11.366,2.861,17.474
		c-1.469,6.031-5.026,10.747-10.593,14.149c-5.567,3.402-11.366,4.33-17.474,2.861H318.55z"/>
</g>
<g>
	<path style="fill:#FEFEFE;" d="M306.489,4.948c5.335,13.84,8.428,30.077,8.428,47.396c0,22.654-5.258,43.375-13.917,59.303
		l-9.201-2.861c8.505-14.768,13.608-34.638,13.608-56.442c0-18.479-3.711-35.566-9.974-49.329
		C299.143,3.557,302.777,4.252,306.489,4.948z M216.49,3.015c-6.263,13.763-9.974,30.85-9.974,49.329
		c0,23.118,5.799,43.994,15.154,58.994c8.273,13.299,19.948,22.036,32.087,23.195c0.464,3.247-0.773,6.417-1.624,9.278
		c-14.845-1.701-28.762-11.984-38.427-27.525c-10.283-16.469-16.623-39.046-16.623-63.942c0-17.319,3.093-33.556,8.428-47.396
		c3.634-0.696,7.345-1.392,11.056-1.933H216.49z"/>
	<path style="fill:#FEFEFE;" d="M281.283,135.307c-2.474,1.778-4.948,3.325-7.577,4.562l-2.165-9.51
		c1.082-0.619,2.088-1.237,3.17-1.933c2.706,1.778,4.948,4.098,6.649,6.881H281.283z"/>
</g>
<g>
</g>
<g>
</g>
<g>
</g>
<g>
</g>
<g>
</g>
<g>
</g>
<g>
</g>
<g>
</g>
<g>
</g>
<g>
</g>
<g>
</g>
<g>
</g>
<g>
</g>
<g>
</g>
<g>
</g>
</svg>
