<?xml version="1.0" encoding="iso-8859-1"?>
<!-- Generator: Adobe Illustrator 19.0.0, SVG Export Plug-In . SVG Version: 6.00 Build 0)  -->
<svg version="1.1" id="Layer_1" xmlns="http://www.w3.org/2000/svg" xmlns:xlink="http://www.w3.org/1999/xlink" x="0px" y="0px"
	 viewBox="0 0 512 512" style="enable-background:new 0 0 512 512;" xml:space="preserve">
<polygon style="fill:#4D4D4D;" points="371.506,59.531 512,71.744 431.236,489.039 256,489.039 80.765,489.039 0,71.744 
	140.494,59.531 256.595,87.867 "/>
<polygon style="fill:#282828;" points="371.506,59.531 256.595,87.867 256,87.722 256,489.039 431.235,489.039 512,71.744 "/>
<polygon style="fill:#DCDCDE;" points="371.506,59.531 140.494,59.531 256,418.11 "/>
<polygon style="fill:#CECFD0;" points="256,59.531 256,418.11 371.506,59.531 "/>
<polygon style="fill:#E5E5E5;" points="256,418.11 403.904,206.273 373.723,175.891 431.766,98.89 340.696,39.408 "/>
<polygon style="fill:#F5F6F6;" points="256,418.11 171.304,39.408 80.234,98.89 138.277,175.891 108.096,206.273 "/>
<path style="fill:#D02D7F;" d="M234.979,93.73l-53.181,29.216c-11.387,5.619-24.897-1.713-26.403-14.323
	c-1.05-8.799-1.836-20.225-1.836-34.712s0.786-25.914,1.836-34.712c1.505-12.608,15.016-19.942,26.403-14.323l53.181,29.216
	L256,73.91L234.979,93.73z"/>
<g>
	<path style="fill:#C42C78;" d="M277.021,93.73l53.181,29.216c11.387,5.619,24.898-1.713,26.403-14.323
		c1.05-8.799,1.836-20.225,1.836-34.712s-0.786-25.914-1.836-34.712c-1.505-12.608-15.016-19.942-26.403-14.323l-53.181,29.216
		L256,73.91L277.021,93.73z"/>
	<path style="fill:#C42C78;" d="M267.856,98.026h-23.713c-5.06,0-9.164-4.103-9.164-9.164V58.958c0-5.06,4.103-9.164,9.164-9.164
		h23.713c5.06,0,9.164,4.103,9.164,9.164v29.906C277.021,93.924,272.917,98.026,267.856,98.026z"/>
</g>
<path style="fill:#B82971;" d="M267.856,98.026H256V49.793h11.856c5.06,0,9.164,4.103,9.164,9.164v29.906
	C277.021,93.924,272.917,98.026,267.856,98.026z"/>
<g>
	
		<rect x="195.998" y="58.958" transform="matrix(-0.9754 -0.2206 0.2206 -0.9754 417.0614 172.9447)" style="fill:#C42C78;" width="44.379" height="8.454"/>
	
		<rect x="213.964" y="62.459" transform="matrix(-0.2206 -0.9754 0.9754 -0.2206 183.7591 316.1367)" style="fill:#C42C78;" width="8.454" height="44.379"/>
</g>
<g>
	
		<rect x="289.595" y="41.008" transform="matrix(-0.2206 -0.9754 0.9754 -0.2206 296.9966 363.7222)" style="fill:#B82971;" width="8.454" height="44.379"/>
	
		<rect x="271.647" y="80.405" transform="matrix(-0.9754 -0.2206 0.2206 -0.9754 561.7645 231.9968)" style="fill:#B82971;" width="44.379" height="8.454"/>
</g>
<g>
</g>
<g>
</g>
<g>
</g>
<g>
</g>
<g>
</g>
<g>
</g>
<g>
</g>
<g>
</g>
<g>
</g>
<g>
</g>
<g>
</g>
<g>
</g>
<g>
</g>
<g>
</g>
<g>
</g>
</svg>
