<?xml version="1.0" encoding="iso-8859-1"?>
<!-- Generator: Adobe Illustrator 19.0.0, SVG Export Plug-In . SVG Version: 6.00 Build 0)  -->
<svg version="1.1" id="Layer_1" xmlns="http://www.w3.org/2000/svg" xmlns:xlink="http://www.w3.org/1999/xlink" x="0px" y="0px"
	 viewBox="0 0 512 512" style="enable-background:new 0 0 512 512;" xml:space="preserve">
<path style="fill:#CCA400;" d="M345.665,366.388H63.03h-23.2v-15.25c0-12.402-10.054-22.457-22.457-22.457H7.579v-45.47h9.794
	c12.402,0,22.457-10.054,22.457-22.457l0,0c0-12.402-10.054-22.457-22.457-22.457H7.579v-45.47h9.794
	c12.402,0,22.457-10.054,22.457-22.457V145.61h23.2h70.872h56.835H448.97h23.2v15.25c0,12.402,10.054,22.457,22.457,22.457h9.794
	v45.47h-9.794c-12.402,0-22.457,10.054-22.457,22.457l0,0c0,12.402,10.054,22.457,22.457,22.457h9.794v45.47h-9.794
	c-12.402,0-22.457,10.054-22.457,22.457v24.761h-23.2h-36.783H345.665z"/>
<polygon style="fill:#FFE477;" points="207.497,181.141 450.21,181.141 450.21,330.859 63.701,330.859 63.701,181.141 
	142.376,181.141 "/>
<g>
	<path style="fill:#CCA400;" d="M104.427,233.39c-0.075-0.298-0.149-0.597-0.149-0.746c0-2.388,3.508-4.03,6.12-4.03
		c1.642,0,2.91,0.522,3.283,1.94l11.419,40.45l11.344-40.45c0.373-1.418,1.642-1.94,3.284-1.94c2.611,0,6.12,1.716,6.12,4.03
		c0,0.224-0.075,0.448-0.149,0.746l-14.331,46.942c-0.672,2.239-3.433,3.284-6.269,3.284s-5.523-1.045-6.269-3.284L104.427,233.39z"
		/>
	<path style="fill:#CCA400;" d="M150.996,231.6c0-2.089,2.388-2.985,4.851-2.985c2.388,0,4.852,0.896,4.852,2.985v48.51
		c0,2.015-2.464,3.06-4.852,3.06c-2.463,0-4.851-1.045-4.851-3.06V231.6z"/>
	<path style="fill:#CCA400;" d="M169.653,231.6c0-1.567,1.417-2.985,3.656-2.985h15.001c9.478,0,16.942,4.552,16.942,16.792v0.447
		c0,12.24-7.687,16.942-17.538,16.942h-8.358v17.314c0,2.015-2.464,3.06-4.852,3.06c-2.463,0-4.851-1.045-4.851-3.06V231.6H169.653z
		 M179.355,237.121v18.061h8.358c4.851,0,7.836-2.761,7.836-8.582v-0.896c0-5.822-2.985-8.582-7.836-8.582L179.355,237.121
		L179.355,237.121z"/>
	<path style="fill:#CCA400;" d="M216.616,261.227h19.404c1.567,0,3.135,1.791,3.135,4.03c0,2.388-1.567,3.955-3.135,3.955h-19.404
		c-1.79,0-2.984-1.567-2.984-3.955C213.631,263.018,214.826,261.227,216.616,261.227z"/>
	<path style="fill:#CCA400;" d="M256.407,231.6c0-1.567,1.417-2.985,3.656-2.985h15.001c9.478,0,16.942,4.552,16.942,16.792v0.447
		c0,12.24-7.687,16.942-17.538,16.942h-8.358v17.314c0,2.015-2.464,3.06-4.852,3.06c-2.463,0-4.851-1.045-4.851-3.06V231.6H256.407z
		 M266.109,237.121v18.061h8.358c4.851,0,7.836-2.761,7.836-8.582v-0.896c0-5.822-2.985-8.582-7.836-8.582L266.109,237.121
		L266.109,237.121z"/>
	<path style="fill:#CCA400;" d="M291.258,279.138c0-0.149,0.074-0.447,0.149-0.746l14.403-46.942
		c0.672-2.239,3.433-3.284,6.195-3.284c2.837,0,5.597,1.045,6.269,3.284l14.404,46.942c0.074,0.299,0.149,0.522,0.149,0.746
		c0,2.314-3.509,4.03-6.12,4.03c-1.642,0-2.911-0.522-3.284-1.94l-2.837-9.925h-17.09l-2.837,9.925
		c-0.373,1.418-1.641,1.94-3.283,1.94C294.766,283.169,291.258,281.527,291.258,279.138z M318.499,263.69l-6.494-22.912
		l-6.493,22.912H318.499z"/>
	<path style="fill:#CCA400;" d="M360.589,268.615c0-11.195-23.957-7.762-23.957-25.449c0-11.12,9.553-14.927,18.135-14.927
		c4.403,0,14.18,1.045,14.18,5.97c0,1.716-1.194,5.15-3.881,5.15c-2.313,0-4.029-2.837-10.298-2.837
		c-5.373,0-8.433,2.165-8.433,5.747c0,9.254,23.956,6.045,23.956,25.374c0,10.672-7.463,16.195-17.762,16.195
		c-9.776,0-17.24-4.926-17.24-9.254c0-2.089,1.94-5.224,4.254-5.224c3.059,0,5.074,5.748,12.687,5.748
		C356.708,275.109,360.589,273.094,360.589,268.615z"/>
	<path style="fill:#CCA400;" d="M399.544,268.615c0-11.195-23.957-7.762-23.957-25.449c0-11.12,9.553-14.927,18.135-14.927
		c4.403,0,14.18,1.045,14.18,5.97c0,1.716-1.194,5.15-3.881,5.15c-2.313,0-4.029-2.837-10.298-2.837
		c-5.373,0-8.433,2.165-8.433,5.747c0,9.254,23.956,6.045,23.956,25.374c0,10.672-7.463,16.195-17.762,16.195
		c-9.776,0-17.24-4.926-17.24-9.254c0-2.089,1.94-5.224,4.254-5.224c3.059,0,5.074,5.748,12.687,5.748
		C395.663,275.109,399.544,273.094,399.544,268.615z"/>
</g>
<g>
	<polygon style="opacity:0.32;fill:#FFFFFF;enable-background:new    ;" points="217.637,366.504 111.312,366.504 215.75,145.727 
		322.075,145.727 	"/>
	<polygon style="opacity:0.32;fill:#FFFFFF;enable-background:new    ;" points="302.591,366.504 249.429,366.504 353.866,145.727 
		407.029,145.727 	"/>
</g>
<path d="M494.627,236.367h9.794c4.187,0,7.579-3.392,7.579-7.579v-45.47c0-4.187-3.392-7.579-7.579-7.579h-9.794
	c-8.204,0-14.878-6.674-14.878-14.878v-15.25c0-4.187-3.392-7.579-7.579-7.579H190.737c-4.187,0-7.579,3.392-7.579,7.579
	c0,4.187,3.392,7.579,7.579,7.579h273.854v7.671c0,16.562,13.474,30.036,30.036,30.036h2.215v30.312h-2.215
	c-16.562,0-30.036,13.474-30.036,30.036s13.474,30.036,30.036,30.036h2.215v30.312h-2.215c-16.562,0-30.036,13.474-30.036,30.036
	v17.181h-52.404c-4.187,0-7.579,3.392-7.579,7.579s3.392,7.579,7.579,7.579h59.983c4.187,0,7.579-3.392,7.579-7.579v-24.76
	c0-8.203,6.674-14.878,14.878-14.878h9.794c4.187,0,7.579-3.392,7.579-7.579v-45.47c0-4.187-3.392-7.579-7.579-7.579h-9.794
	c-8.204,0-14.878-6.674-14.878-14.878S486.423,236.367,494.627,236.367z"/>
<path d="M345.665,358.809H47.409v-7.671c0-16.562-13.474-30.036-30.036-30.036h-2.215v-30.312h2.215
	c16.562,0,30.036-13.474,30.036-30.036s-13.474-30.036-30.036-30.036h-2.215v-30.312h2.215c16.562,0,30.036-13.474,30.036-30.036
	V153.19h86.493c4.187,0,7.579-3.392,7.579-7.579c0-4.187-3.392-7.579-7.579-7.579H39.83c-4.187,0-7.579,3.392-7.579,7.579v24.76
	c0,8.203-6.674,14.878-14.878,14.878H7.579c-4.187,0-7.579,3.392-7.579,7.579v45.47c0,4.187,3.392,7.579,7.579,7.579h9.794
	c8.203,0,14.878,6.674,14.878,14.878c0,8.204-6.674,14.878-14.878,14.878H7.579c-4.187,0-7.579,3.392-7.579,7.579v45.47
	c0,4.187,3.392,7.579,7.579,7.579h9.794c8.203,0,14.878,6.674,14.878,14.878v15.25c0,4.187,3.392,7.579,7.579,7.579h305.835
	c4.187,0,7.579-3.392,7.579-7.579C353.245,362.202,349.852,358.809,345.665,358.809z"/>
<path d="M56.122,181.141v149.717c0,4.187,3.392,7.579,7.579,7.579h386.508c4.187,0,7.579-3.392,7.579-7.579V181.141
	c0-4.187-3.392-7.579-7.579-7.579H207.497c-4.187,0-7.579,3.392-7.579,7.579c0,4.187,3.392,7.579,7.579,7.579h235.135v134.559H71.28
	V188.72h71.096c4.187,0,7.579-3.392,7.579-7.579c0-4.187-3.392-7.579-7.579-7.579H63.701
	C59.515,173.562,56.122,176.955,56.122,181.141z"/>
<g>
</g>
<g>
</g>
<g>
</g>
<g>
</g>
<g>
</g>
<g>
</g>
<g>
</g>
<g>
</g>
<g>
</g>
<g>
</g>
<g>
</g>
<g>
</g>
<g>
</g>
<g>
</g>
<g>
</g>
</svg>
